<svg width="359" height="360" viewBox="0 0 359 360" fill="none" xmlns="http://www.w3.org/2000/svg">
<mask id="path-1-inside-1_1_284" fill="white">
<path fill-rule="evenodd" clip-rule="evenodd" d="M155.525 95.0571C142.182 76.915 126.106 61.0162 111.333 52.1921C74.2496 30.0434 32.9589 50.5777 13.6693 82.8736C-5.62025 115.17 -8.40168 158.704 32.9601 183.409C48.6913 192.805 69.469 199.493 90.5795 202.757C71.3988 216.442 54.4295 233.319 45.2 248.772C23.0513 285.855 43.5855 327.145 75.8815 346.435C108.177 365.724 151.712 368.506 176.417 327.144C187.225 309.048 194.451 284.275 197.002 259.999C210.982 281.371 230.018 301.106 249.04 312.468C290.402 337.172 327.414 314.082 346.703 281.786C365.993 249.49 364.495 203.4 327.412 181.251C309.667 170.653 282.046 163.24 255.233 161.197C275.909 147.338 294.86 128.838 305.902 110.351C330.606 68.9894 307.516 31.9775 275.22 12.6879C242.924 -6.60163 196.834 -5.10427 174.685 31.9787C165.283 47.7193 158.389 71.2313 155.525 95.0571Z"/>
</mask>
<path d="M155.525 95.0571L153.109 96.8346L157.6 102.941L158.504 95.4151L155.525 95.0571ZM90.5795 202.757L92.322 205.199L98.3217 200.918L91.0379 199.792L90.5795 202.757ZM197.002 259.999L199.513 258.357L194.899 251.304L194.018 259.686L197.002 259.999ZM255.233 161.197L253.562 158.705L246.364 163.53L255.005 164.188L255.233 161.197ZM109.794 54.7677C124.112 63.3196 139.909 78.8885 153.109 96.8346L157.942 93.2796C144.454 74.9415 128.1 58.7127 112.871 49.6166L109.794 54.7677ZM16.2449 84.412C35.0085 52.9966 74.6209 33.7596 109.794 54.7677L112.871 49.6166C73.8783 26.3272 30.9093 48.1588 11.0938 81.3353L16.2449 84.412ZM34.4984 180.833C14.6029 168.95 5.50594 152.707 3.55095 135.647C1.58058 118.452 6.84449 100.151 16.2449 84.412L11.0938 81.3353C1.20459 97.8924 -4.56702 117.507 -2.41004 136.33C-0.237688 155.287 9.95557 173.163 31.4218 185.984L34.4984 180.833ZM91.0379 199.792C70.2008 196.571 49.8155 189.982 34.4984 180.833L31.4218 185.984C47.5672 195.628 68.7372 202.416 90.1212 205.722L91.0379 199.792ZM47.7756 250.31C56.7232 235.329 73.3471 218.738 92.322 205.199L88.8371 200.315C69.4506 214.147 52.1358 231.309 42.6244 247.233L47.7756 250.31ZM77.4198 343.859C46.0045 325.096 26.7674 285.483 47.7756 250.31L42.6244 247.233C19.3351 286.226 41.1666 329.195 74.3432 349.01L77.4198 343.859ZM173.841 325.606C161.958 345.501 145.715 354.598 128.654 356.553C111.46 358.524 93.1587 353.26 77.4198 343.859L74.3432 349.01C90.9003 358.9 110.515 364.671 129.338 362.514C148.295 360.342 166.171 350.149 178.992 328.682L173.841 325.606ZM194.018 259.686C191.5 283.649 184.371 307.975 173.841 325.606L178.992 328.682C190.078 310.121 197.401 284.902 199.986 260.313L194.018 259.686ZM250.578 309.892C232.04 298.82 213.311 279.452 199.513 258.357L194.491 261.641C208.653 283.291 227.995 303.393 247.502 315.043L250.578 309.892ZM344.128 280.248C334.727 295.987 321.109 309.299 305.036 315.716C289.088 322.084 270.474 321.775 250.578 309.892L247.502 315.043C268.968 327.865 289.54 328.364 307.261 321.288C324.856 314.263 339.389 299.882 349.279 283.325L344.128 280.248ZM325.874 183.827C361.047 204.835 362.891 248.833 344.128 280.248L349.279 283.325C369.094 250.148 367.943 201.965 328.951 178.676L325.874 183.827ZM255.005 164.188C281.526 166.209 308.653 173.541 325.874 183.827L328.951 178.676C310.682 167.764 282.566 160.271 255.461 158.206L255.005 164.188ZM256.903 163.689C277.846 149.651 297.153 130.85 308.477 111.89L303.326 108.813C292.567 126.827 273.971 145.025 253.562 158.705L256.903 163.689ZM308.477 111.89C321.298 90.4233 321.798 69.851 314.722 52.1301C307.697 34.5346 293.316 20.0015 276.758 10.1124L273.682 15.2635C289.421 24.6639 302.732 38.2816 309.15 54.3549C315.517 70.3027 315.209 88.9173 303.326 108.813L308.477 111.89ZM276.758 10.1124C243.582 -9.70315 195.399 -8.55224 172.109 30.4404L177.26 33.5171C198.269 -1.65631 242.266 -3.50011 273.682 15.2635L276.758 10.1124ZM172.109 30.4404C162.422 46.6596 155.441 70.618 152.547 94.6992L158.504 95.4151C161.337 71.8446 168.145 48.7789 177.26 33.5171L172.109 30.4404Z" fill="#DCD1B5" mask="url(#path-1-inside-1_1_284)"/>
</svg>
